<svg width="600" height="600"><g transform="translate(10,10)"><g class="player" transform="translate(0,10)"><text x="0" fill="#E6E6E6">Player 1: 0</text><text x="100" fill="#0F80FF">Player 2: 4</text></g><g class="field" transform="translate(0,40)"><g class="row" transform="translate(0,0)"><g class="col" transform="translate(0,0)"><rect class="cell" rx="4" ry="4" opacity="0.25" x="4" y="4" width="32" height="32" fill="#E6E6E6"></rect><line class="hline" x1="4" x2="36" y1="0" y2="0" stroke-linecap="round" stroke="#0F80FF" stroke-width="5"></line><path d="M4,0L20,-13.333333333333334L36,0L20,13.333333333333334Z" stroke="black" stroke-width="2" opacity="0"></path><line class="vline" y1="4" y2="36" x1="0" x2="0" stroke-linecap="round" stroke="#E6E6E6" stroke-width="5"></line><path d="M0,4L-13.333333333333334,20L0,36L13.333333333333334,20Z" stroke="black" stroke-width="2" opacity="0"></path></g><g class="col" transform="translate(40,0)"><rect class="cell" rx="4" ry="4" opacity="0.25" x="4" y="4" width="32" height="32" fill="#E6E6E6"></rect><line class="hline" x1="4" x2="36" y1="0" y2="0" stroke-linecap="round" stroke="#E6E6E6" stroke-width="5"></line><path d="M4,0L20,-13.333333333333334L36,0L20,13.333333333333334Z" stroke="black" stroke-width="2" opacity="0"></path><line class="vline" y1="4" y2="36" x1="0" x2="0" stroke-linecap="round" stroke="#0F80FF" stroke-width="5"></line><path d="M0,4L-13.333333333333334,20L0,36L13.333333333333334,20Z" stroke="black" stroke-width="2" opacity="0"></path></g><g class="col" transform="translate(80,0)"><rect class="cell" rx="4" ry="4" opacity="0.25" x="4" y="4" width="32" height="32" fill="#E6E6E6"></rect><line class="hline" x1="4" x2="36" y1="0" y2="0" stroke-linecap="round" stroke="#E6E6E6" stroke-width="5"></line><path d="M4,0L20,-13.333333333333334L36,0L20,13.333333333333334Z" stroke="black" stroke-width="2" opacity="0"></path><line class="vline" y1="4" y2="36" x1="0" x2="0" stroke-linecap="round" stroke="#FC6666" stroke-width="5"></line><path d="M0,4L-13.333333333333334,20L0,36L13.333333333333334,20Z" stroke="black" stroke-width="2" opacity="0"></path></g><g class="col" transform="translate(120,0)"><rect class="cell" rx="4" ry="4" opacity="0.25" x="4" y="4" width="32" height="32" fill="#E6E6E6"></rect><line class="hline" x1="4" x2="36" y1="0" y2="0" stroke-linecap="round" stroke="#E6E6E6" stroke-width="5"></line><path d="M4,0L20,-13.333333333333334L36,0L20,13.333333333333334Z" stroke="black" stroke-width="2" opacity="0"></path><line class="vline" y1="4" y2="36" x1="0" x2="0" stroke-linecap="round" stroke="#E6E6E6" stroke-width="5"></line><path d="M0,4L-13.333333333333334,20L0,36L13.333333333333334,20Z" stroke="black" stroke-width="2" opacity="0"></path></g><g class="col" transform="translate(160,0)"><rect class="cell" rx="4" ry="4" opacity="0.25" x="4" y="4" width="32" height="32" fill="#0F80FF"></rect><line class="hline" x1="4" x2="36" y1="0" y2="0" stroke-linecap="round" stroke="#FC6666" stroke-width="5"></line><path d="M4,0L20,-13.333333333333334L36,0L20,13.333333333333334Z" stroke="black" stroke-width="2" opacity="0"></path><line class="vline" y1="4" y2="36" x1="0" x2="0" stroke-linecap="round" stroke="#FC6666" stroke-width="5"></line><path d="M0,4L-13.333333333333334,20L0,36L13.333333333333334,20Z" stroke="black" stroke-width="2" opacity="0"></path></g><g class="col" transform="translate(200,0)"><rect class="cell" rx="4" ry="4" opacity="0.25" x="4" y="4" width="32" height="32" fill="#E6E6E6"></rect><line class="hline" x1="4" x2="36" y1="0" y2="0" stroke-linecap="round" stroke="#E6E6E6" stroke-width="5"></line><path d="M4,0L20,-13.333333333333334L36,0L20,13.333333333333334Z" stroke="black" stroke-width="2" opacity="0"></path><line class="vline" y1="4" y2="36" x1="0" x2="0" stroke-linecap="round" stroke="#0F80FF" stroke-width="5"></line><path d="M0,4L-13.333333333333334,20L0,36L13.333333333333334,20Z" stroke="black" stroke-width="2" opacity="0"></path></g><g class="col" transform="translate(240,0)"><rect class="cell" rx="4" ry="4" opacity="0.25" x="4" y="4" width="32" height="32" fill="white"></rect><line class="hline" x1="4" x2="36" y1="0" y2="0" stroke-linecap="round" stroke-width="0"></line><path d="M4,0L20,-13.333333333333334L36,0L20,13.333333333333334Z" stroke="black" stroke-width="2" opacity="0"></path><line class="vline" y1="4" y2="36" x1="0" x2="0" stroke-linecap="round" stroke="#FC6666" stroke-width="5"></line><path d="M0,4L-13.333333333333334,20L0,36L13.333333333333334,20Z" stroke="black" stroke-width="2" opacity="0"></path></g></g><g class="row" transform="translate(0,40)"><g class="col" transform="translate(0,0)"><rect class="cell" rx="4" ry="4" opacity="0.25" x="4" y="4" width="32" height="32" fill="#E6E6E6"></rect><line class="hline" x1="4" x2="36" y1="0" y2="0" stroke-linecap="round" stroke="#0F80FF" stroke-width="5"></line><path d="M4,0L20,-13.333333333333334L36,0L20,13.333333333333334Z" stroke="black" stroke-width="2" opacity="0"></path><line class="vline" y1="4" y2="36" x1="0" x2="0" stroke-linecap="round" stroke="#E6E6E6" stroke-width="5"></line><path d="M0,4L-13.333333333333334,20L0,36L13.333333333333334,20Z" stroke="black" stroke-width="2" opacity="0"></path></g><g class="col" transform="translate(40,0)"><rect class="cell" rx="4" ry="4" opacity="0.25" x="4" y="4" width="32" height="32" fill="#E6E6E6"></rect><line class="hline" x1="4" x2="36" y1="0" y2="0" stroke-linecap="round" stroke="#E6E6E6" stroke-width="5"></line><path d="M4,0L20,-13.333333333333334L36,0L20,13.333333333333334Z" stroke="black" stroke-width="2" opacity="0"></path><line class="vline" y1="4" y2="36" x1="0" x2="0" stroke-linecap="round" stroke="#E6E6E6" stroke-width="5"></line><path d="M0,4L-13.333333333333334,20L0,36L13.333333333333334,20Z" stroke="black" stroke-width="2" opacity="0"></path></g><g class="col" transform="translate(80,0)"><rect class="cell" rx="4" ry="4" opacity="0.25" x="4" y="4" width="32" height="32" fill="#0F80FF"></rect><line class="hline" x1="4" x2="36" y1="0" y2="0" stroke-linecap="round" stroke="#FC6666" stroke-width="5"></line><path d="M4,0L20,-13.333333333333334L36,0L20,13.333333333333334Z" stroke="black" stroke-width="2" opacity="0"></path><line class="vline" y1="4" y2="36" x1="0" x2="0" stroke-linecap="round" stroke="#FC6666" stroke-width="5"></line><path d="M0,4L-13.333333333333334,20L0,36L13.333333333333334,20Z" stroke="black" stroke-width="2" opacity="0"></path></g><g class="col" transform="translate(120,0)"><rect class="cell" rx="4" ry="4" opacity="0.25" x="4" y="4" width="32" height="32" fill="#E6E6E6"></rect><line class="hline" x1="4" x2="36" y1="0" y2="0" stroke-linecap="round" stroke="#E6E6E6" stroke-width="5"></line><path d="M4,0L20,-13.333333333333334L36,0L20,13.333333333333334Z" stroke="black" stroke-width="2" opacity="0"></path><line class="vline" y1="4" y2="36" x1="0" x2="0" stroke-linecap="round" stroke="#0F80FF" stroke-width="5"></line><path d="M0,4L-13.333333333333334,20L0,36L13.333333333333334,20Z" stroke="black" stroke-width="2" opacity="0"></path></g><g class="col" transform="translate(160,0)"><rect class="cell" rx="4" ry="4" opacity="0.25" x="4" y="4" width="32" height="32" fill="#0F80FF"></rect><line class="hline" x1="4" x2="36" y1="0" y2="0" stroke-linecap="round" stroke="#0F80FF" stroke-width="5"></line><path d="M4,0L20,-13.333333333333334L36,0L20,13.333333333333334Z" stroke="black" stroke-width="2" opacity="0"></path><line class="vline" y1="4" y2="36" x1="0" x2="0" stroke-linecap="round" stroke="#0F80FF" stroke-width="5"></line><path d="M0,4L-13.333333333333334,20L0,36L13.333333333333334,20Z" stroke="black" stroke-width="2" opacity="0"></path></g><g class="col" transform="translate(200,0)"><rect class="cell" rx="4" ry="4" opacity="0.25" x="4" y="4" width="32" height="32" fill="#E6E6E6"></rect><line class="hline" x1="4" x2="36" y1="0" y2="0" stroke-linecap="round" stroke="#E6E6E6" stroke-width="5"></line><path d="M4,0L20,-13.333333333333334L36,0L20,13.333333333333334Z" stroke="black" stroke-width="2" opacity="0"></path><line class="vline" y1="4" y2="36" x1="0" x2="0" stroke-linecap="round" stroke="#FC6666" stroke-width="5"></line><path d="M0,4L-13.333333333333334,20L0,36L13.333333333333334,20Z" stroke="black" stroke-width="2" opacity="0"></path></g><g class="col" transform="translate(240,0)"><rect class="cell" rx="4" ry="4" opacity="0.25" x="4" y="4" width="32" height="32" fill="white"></rect><line class="hline" x1="4" x2="36" y1="0" y2="0" stroke-linecap="round" stroke-width="0"></line><path d="M4,0L20,-13.333333333333334L36,0L20,13.333333333333334Z" stroke="black" stroke-width="2" opacity="0"></path><line class="vline" y1="4" y2="36" x1="0" x2="0" stroke-linecap="round" stroke="#0F80FF" stroke-width="5"></line><path d="M0,4L-13.333333333333334,20L0,36L13.333333333333334,20Z" stroke="black" stroke-width="2" opacity="0"></path></g></g><g class="row" transform="translate(0,80)"><g class="col" transform="translate(0,0)"><rect class="cell" rx="4" ry="4" opacity="0.25" x="4" y="4" width="32" height="32" fill="#E6E6E6"></rect><line class="hline" x1="4" x2="36" y1="0" y2="0" stroke-linecap="round" stroke="#FC6666" stroke-width="5"></line><path d="M4,0L20,-13.333333333333334L36,0L20,13.333333333333334Z" stroke="black" stroke-width="2" opacity="0"></path><line class="vline" y1="4" y2="36" x1="0" x2="0" stroke-linecap="round" stroke="#0F80FF" stroke-width="5"></line><path d="M0,4L-13.333333333333334,20L0,36L13.333333333333334,20Z" stroke="black" stroke-width="2" opacity="0"></path></g><g class="col" transform="translate(40,0)"><rect class="cell" rx="4" ry="4" opacity="0.25" x="4" y="4" width="32" height="32" fill="#E6E6E6"></rect><line class="hline" x1="4" x2="36" y1="0" y2="0" stroke-linecap="round" stroke="#0F80FF" stroke-width="5"></line><path d="M4,0L20,-13.333333333333334L36,0L20,13.333333333333334Z" stroke="black" stroke-width="2" opacity="0"></path><line class="vline" y1="4" y2="36" x1="0" x2="0" stroke-linecap="round" stroke="#E6E6E6" stroke-width="5"></line><path d="M0,4L-13.333333333333334,20L0,36L13.333333333333334,20Z" stroke="black" stroke-width="2" opacity="0"></path></g><g class="col" transform="translate(80,0)"><rect class="cell" rx="4" ry="4" opacity="0.25" x="4" y="4" width="32" height="32" fill="#E6E6E6"></rect><line class="hline" x1="4" x2="36" y1="0" y2="0" stroke-linecap="round" stroke="#0F80FF" stroke-width="5"></line><path d="M4,0L20,-13.333333333333334L36,0L20,13.333333333333334Z" stroke="black" stroke-width="2" opacity="0"></path><line class="vline" y1="4" y2="36" x1="0" x2="0" stroke-linecap="round" stroke="#E6E6E6" stroke-width="5"></line><path d="M0,4L-13.333333333333334,20L0,36L13.333333333333334,20Z" stroke="black" stroke-width="2" opacity="0"></path></g><g class="col" transform="translate(120,0)"><rect class="cell" rx="4" ry="4" opacity="0.25" x="4" y="4" width="32" height="32" fill="#E6E6E6"></rect><line class="hline" x1="4" x2="36" y1="0" y2="0" stroke-linecap="round" stroke="#FC6666" stroke-width="5"></line><path d="M4,0L20,-13.333333333333334L36,0L20,13.333333333333334Z" stroke="black" stroke-width="2" opacity="0"></path><line class="vline" y1="4" y2="36" x1="0" x2="0" stroke-linecap="round" stroke="#E6E6E6" stroke-width="5"></line><path d="M0,4L-13.333333333333334,20L0,36L13.333333333333334,20Z" stroke="black" stroke-width="2" opacity="0"></path></g><g class="col" transform="translate(160,0)"><rect class="cell" rx="4" ry="4" opacity="0.25" x="4" y="4" width="32" height="32" fill="#E6E6E6"></rect><line class="hline" x1="4" x2="36" y1="0" y2="0" stroke-linecap="round" stroke="#0F80FF" stroke-width="5"></line><path d="M4,0L20,-13.333333333333334L36,0L20,13.333333333333334Z" stroke="black" stroke-width="2" opacity="0"></path><line class="vline" y1="4" y2="36" x1="0" x2="0" stroke-linecap="round" stroke="#FC6666" stroke-width="5"></line><path d="M0,4L-13.333333333333334,20L0,36L13.333333333333334,20Z" stroke="black" stroke-width="2" opacity="0"></path></g><g class="col" transform="translate(200,0)"><rect class="cell" rx="4" ry="4" opacity="0.25" x="4" y="4" width="32" height="32" fill="#E6E6E6"></rect><line class="hline" x1="4" x2="36" y1="0" y2="0" stroke-linecap="round" stroke="#0F80FF" stroke-width="5"></line><path d="M4,0L20,-13.333333333333334L36,0L20,13.333333333333334Z" stroke="black" stroke-width="2" opacity="0"></path><line class="vline" y1="4" y2="36" x1="0" x2="0" stroke-linecap="round" stroke="#E6E6E6" stroke-width="5"></line><path d="M0,4L-13.333333333333334,20L0,36L13.333333333333334,20Z" stroke="black" stroke-width="2" opacity="0"></path></g><g class="col" transform="translate(240,0)"><rect class="cell" rx="4" ry="4" opacity="0.25" x="4" y="4" width="32" height="32" fill="white"></rect><line class="hline" x1="4" x2="36" y1="0" y2="0" stroke-linecap="round" stroke-width="0"></line><path d="M4,0L20,-13.333333333333334L36,0L20,13.333333333333334Z" stroke="black" stroke-width="2" opacity="0"></path><line class="vline" y1="4" y2="36" x1="0" x2="0" stroke-linecap="round" stroke="#E6E6E6" stroke-width="5"></line><path d="M0,4L-13.333333333333334,20L0,36L13.333333333333334,20Z" stroke="black" stroke-width="2" opacity="0"></path></g></g><g class="row" transform="translate(0,120)"><g class="col" transform="translate(0,0)"><rect class="cell" rx="4" ry="4" opacity="0.25" x="4" y="4" width="32" height="32" fill="#E6E6E6"></rect><line class="hline" x1="4" x2="36" y1="0" y2="0" stroke-linecap="round" stroke="#E6E6E6" stroke-width="5"></line><path d="M4,0L20,-13.333333333333334L36,0L20,13.333333333333334Z" stroke="black" stroke-width="2" opacity="0"></path><line class="vline" y1="4" y2="36" x1="0" x2="0" stroke-linecap="round" stroke="#FC6666" stroke-width="5"></line><path d="M0,4L-13.333333333333334,20L0,36L13.333333333333334,20Z" stroke="black" stroke-width="2" opacity="0"></path></g><g class="col" transform="translate(40,0)"><rect class="cell" rx="4" ry="4" opacity="0.25" x="4" y="4" width="32" height="32" fill="#E6E6E6"></rect><line class="hline" x1="4" x2="36" y1="0" y2="0" stroke-linecap="round" stroke="#E6E6E6" stroke-width="5"></line><path d="M4,0L20,-13.333333333333334L36,0L20,13.333333333333334Z" stroke="black" stroke-width="2" opacity="0"></path><line class="vline" y1="4" y2="36" x1="0" x2="0" stroke-linecap="round" stroke="#FC6666" stroke-width="5"></line><path d="M0,4L-13.333333333333334,20L0,36L13.333333333333334,20Z" stroke="black" stroke-width="2" opacity="0"></path></g><g class="col" transform="translate(80,0)"><rect class="cell" rx="4" ry="4" opacity="0.25" x="4" y="4" width="32" height="32" fill="#E6E6E6"></rect><line class="hline" x1="4" x2="36" y1="0" y2="0" stroke-linecap="round" stroke="#E6E6E6" stroke-width="5"></line><path d="M4,0L20,-13.333333333333334L36,0L20,13.333333333333334Z" stroke="black" stroke-width="2" opacity="0"></path><line class="vline" y1="4" y2="36" x1="0" x2="0" stroke-linecap="round" stroke="#FC6666" stroke-width="5"></line><path d="M0,4L-13.333333333333334,20L0,36L13.333333333333334,20Z" stroke="black" stroke-width="2" opacity="0"></path></g><g class="col" transform="translate(120,0)"><rect class="cell" rx="4" ry="4" opacity="0.25" x="4" y="4" width="32" height="32" fill="#E6E6E6"></rect><line class="hline" x1="4" x2="36" y1="0" y2="0" stroke-linecap="round" stroke="#FC6666" stroke-width="5"></line><path d="M4,0L20,-13.333333333333334L36,0L20,13.333333333333334Z" stroke="black" stroke-width="2" opacity="0"></path><line class="vline" y1="4" y2="36" x1="0" x2="0" stroke-linecap="round" stroke="#E6E6E6" stroke-width="5"></line><path d="M0,4L-13.333333333333334,20L0,36L13.333333333333334,20Z" stroke="black" stroke-width="2" opacity="0"></path></g><g class="col" transform="translate(160,0)"><rect class="cell" rx="4" ry="4" opacity="0.25" x="4" y="4" width="32" height="32" fill="#E6E6E6"></rect><line class="hline" x1="4" x2="36" y1="0" y2="0" stroke-linecap="round" stroke="#0F80FF" stroke-width="5"></line><path d="M4,0L20,-13.333333333333334L36,0L20,13.333333333333334Z" stroke="black" stroke-width="2" opacity="0"></path><line class="vline" y1="4" y2="36" x1="0" x2="0" stroke-linecap="round" stroke="#E6E6E6" stroke-width="5"></line><path d="M0,4L-13.333333333333334,20L0,36L13.333333333333334,20Z" stroke="black" stroke-width="2" opacity="0"></path></g><g class="col" transform="translate(200,0)"><rect class="cell" rx="4" ry="4" opacity="0.25" x="4" y="4" width="32" height="32" fill="#E6E6E6"></rect><line class="hline" x1="4" x2="36" y1="0" y2="0" stroke-linecap="round" stroke="#E6E6E6" stroke-width="5"></line><path d="M4,0L20,-13.333333333333334L36,0L20,13.333333333333334Z" stroke="black" stroke-width="2" opacity="0"></path><line class="vline" y1="4" y2="36" x1="0" x2="0" stroke-linecap="round" stroke="#E6E6E6" stroke-width="5"></line><path d="M0,4L-13.333333333333334,20L0,36L13.333333333333334,20Z" stroke="black" stroke-width="2" opacity="0"></path></g><g class="col" transform="translate(240,0)"><rect class="cell" rx="4" ry="4" opacity="0.25" x="4" y="4" width="32" height="32" fill="white"></rect><line class="hline" x1="4" x2="36" y1="0" y2="0" stroke-linecap="round" stroke-width="0"></line><path d="M4,0L20,-13.333333333333334L36,0L20,13.333333333333334Z" stroke="black" stroke-width="2" opacity="0"></path><line class="vline" y1="4" y2="36" x1="0" x2="0" stroke-linecap="round" stroke="#FC6666" stroke-width="5"></line><path d="M0,4L-13.333333333333334,20L0,36L13.333333333333334,20Z" stroke="black" stroke-width="2" opacity="0"></path></g></g><g class="row" transform="translate(0,160)"><g class="col" transform="translate(0,0)"><rect class="cell" rx="4" ry="4" opacity="0.25" x="4" y="4" width="32" height="32" fill="#E6E6E6"></rect><line class="hline" x1="4" x2="36" y1="0" y2="0" stroke-linecap="round" stroke="#E6E6E6" stroke-width="5"></line><path d="M4,0L20,-13.333333333333334L36,0L20,13.333333333333334Z" stroke="black" stroke-width="2" opacity="0"></path><line class="vline" y1="4" y2="36" x1="0" x2="0" stroke-linecap="round" stroke="#E6E6E6" stroke-width="5"></line><path d="M0,4L-13.333333333333334,20L0,36L13.333333333333334,20Z" stroke="black" stroke-width="2" opacity="0"></path></g><g class="col" transform="translate(40,0)"><rect class="cell" rx="4" ry="4" opacity="0.25" x="4" y="4" width="32" height="32" fill="#E6E6E6"></rect><line class="hline" x1="4" x2="36" y1="0" y2="0" stroke-linecap="round" stroke="#FC6666" stroke-width="5"></line><path d="M4,0L20,-13.333333333333334L36,0L20,13.333333333333334Z" stroke="black" stroke-width="2" opacity="0"></path><line class="vline" y1="4" y2="36" x1="0" x2="0" stroke-linecap="round" stroke="#0F80FF" stroke-width="5"></line><path d="M0,4L-13.333333333333334,20L0,36L13.333333333333334,20Z" stroke="black" stroke-width="2" opacity="0"></path></g><g class="col" transform="translate(80,0)"><rect class="cell" rx="4" ry="4" opacity="0.25" x="4" y="4" width="32" height="32" fill="#0F80FF"></rect><line class="hline" x1="4" x2="36" y1="0" y2="0" stroke-linecap="round" stroke="#FC6666" stroke-width="5"></line><path d="M4,0L20,-13.333333333333334L36,0L20,13.333333333333334Z" stroke="black" stroke-width="2" opacity="0"></path><line class="vline" y1="4" y2="36" x1="0" x2="0" stroke-linecap="round" stroke="#0F80FF" stroke-width="5"></line><path d="M0,4L-13.333333333333334,20L0,36L13.333333333333334,20Z" stroke="black" stroke-width="2" opacity="0"></path></g><g class="col" transform="translate(120,0)"><rect class="cell" rx="4" ry="4" opacity="0.25" x="4" y="4" width="32" height="32" fill="#E6E6E6"></rect><line class="hline" x1="4" x2="36" y1="0" y2="0" stroke-linecap="round" stroke="#E6E6E6" stroke-width="5"></line><path d="M4,0L20,-13.333333333333334L36,0L20,13.333333333333334Z" stroke="black" stroke-width="2" opacity="0"></path><line class="vline" y1="4" y2="36" x1="0" x2="0" stroke-linecap="round" stroke="#0F80FF" stroke-width="5"></line><path d="M0,4L-13.333333333333334,20L0,36L13.333333333333334,20Z" stroke="black" stroke-width="2" opacity="0"></path></g><g class="col" transform="translate(160,0)"><rect class="cell" rx="4" ry="4" opacity="0.25" x="4" y="4" width="32" height="32" fill="#E6E6E6"></rect><line class="hline" x1="4" x2="36" y1="0" y2="0" stroke-linecap="round" stroke="#E6E6E6" stroke-width="5"></line><path d="M4,0L20,-13.333333333333334L36,0L20,13.333333333333334Z" stroke="black" stroke-width="2" opacity="0"></path><line class="vline" y1="4" y2="36" x1="0" x2="0" stroke-linecap="round" stroke="#FC6666" stroke-width="5"></line><path d="M0,4L-13.333333333333334,20L0,36L13.333333333333334,20Z" stroke="black" stroke-width="2" opacity="0"></path></g><g class="col" transform="translate(200,0)"><rect class="cell" rx="4" ry="4" opacity="0.25" x="4" y="4" width="32" height="32" fill="#E6E6E6"></rect><line class="hline" x1="4" x2="36" y1="0" y2="0" stroke-linecap="round" stroke="#0F80FF" stroke-width="5"></line><path d="M4,0L20,-13.333333333333334L36,0L20,13.333333333333334Z" stroke="black" stroke-width="2" opacity="0"></path><line class="vline" y1="4" y2="36" x1="0" x2="0" stroke-linecap="round" stroke="#0F80FF" stroke-width="5"></line><path d="M0,4L-13.333333333333334,20L0,36L13.333333333333334,20Z" stroke="black" stroke-width="2" opacity="0"></path></g><g class="col" transform="translate(240,0)"><rect class="cell" rx="4" ry="4" opacity="0.25" x="4" y="4" width="32" height="32" fill="white"></rect><line class="hline" x1="4" x2="36" y1="0" y2="0" stroke-linecap="round" stroke-width="0"></line><path d="M4,0L20,-13.333333333333334L36,0L20,13.333333333333334Z" stroke="black" stroke-width="2" opacity="0"></path><line class="vline" y1="4" y2="36" x1="0" x2="0" stroke-linecap="round" stroke="#0F80FF" stroke-width="5"></line><path d="M0,4L-13.333333333333334,20L0,36L13.333333333333334,20Z" stroke="black" stroke-width="2" opacity="0"></path></g></g><g class="row" transform="translate(0,200)"><g class="col" transform="translate(0,0)"><rect class="cell" rx="4" ry="4" opacity="0.25" x="4" y="4" width="32" height="32" fill="#E6E6E6"></rect><line class="hline" x1="4" x2="36" y1="0" y2="0" stroke-linecap="round" stroke="#E6E6E6" stroke-width="5"></line><path d="M4,0L20,-13.333333333333334L36,0L20,13.333333333333334Z" stroke="black" stroke-width="2" opacity="0"></path><line class="vline" y1="4" y2="36" x1="0" x2="0" stroke-linecap="round" stroke="#0F80FF" stroke-width="5"></line><path d="M0,4L-13.333333333333334,20L0,36L13.333333333333334,20Z" stroke="black" stroke-width="2" opacity="0"></path></g><g class="col" transform="translate(40,0)"><rect class="cell" rx="4" ry="4" opacity="0.25" x="4" y="4" width="32" height="32" fill="#E6E6E6"></rect><line class="hline" x1="4" x2="36" y1="0" y2="0" stroke-linecap="round" stroke="#E6E6E6" stroke-width="5"></line><path d="M4,0L20,-13.333333333333334L36,0L20,13.333333333333334Z" stroke="black" stroke-width="2" opacity="0"></path><line class="vline" y1="4" y2="36" x1="0" x2="0" stroke-linecap="round" stroke="#E6E6E6" stroke-width="5"></line><path d="M0,4L-13.333333333333334,20L0,36L13.333333333333334,20Z" stroke="black" stroke-width="2" opacity="0"></path></g><g class="col" transform="translate(80,0)"><rect class="cell" rx="4" ry="4" opacity="0.25" x="4" y="4" width="32" height="32" fill="#E6E6E6"></rect><line class="hline" x1="4" x2="36" y1="0" y2="0" stroke-linecap="round" stroke="#FC6666" stroke-width="5"></line><path d="M4,0L20,-13.333333333333334L36,0L20,13.333333333333334Z" stroke="black" stroke-width="2" opacity="0"></path><line class="vline" y1="4" y2="36" x1="0" x2="0" stroke-linecap="round" stroke="#0F80FF" stroke-width="5"></line><path d="M0,4L-13.333333333333334,20L0,36L13.333333333333334,20Z" stroke="black" stroke-width="2" opacity="0"></path></g><g class="col" transform="translate(120,0)"><rect class="cell" rx="4" ry="4" opacity="0.25" x="4" y="4" width="32" height="32" fill="#E6E6E6"></rect><line class="hline" x1="4" x2="36" y1="0" y2="0" stroke-linecap="round" stroke="#0F80FF" stroke-width="5"></line><path d="M4,0L20,-13.333333333333334L36,0L20,13.333333333333334Z" stroke="black" stroke-width="2" opacity="0"></path><line class="vline" y1="4" y2="36" x1="0" x2="0" stroke-linecap="round" stroke="#E6E6E6" stroke-width="5"></line><path d="M0,4L-13.333333333333334,20L0,36L13.333333333333334,20Z" stroke="black" stroke-width="2" opacity="0"></path></g><g class="col" transform="translate(160,0)"><rect class="cell" rx="4" ry="4" opacity="0.25" x="4" y="4" width="32" height="32" fill="#E6E6E6"></rect><line class="hline" x1="4" x2="36" y1="0" y2="0" stroke-linecap="round" stroke="#FC6666" stroke-width="5"></line><path d="M4,0L20,-13.333333333333334L36,0L20,13.333333333333334Z" stroke="black" stroke-width="2" opacity="0"></path><line class="vline" y1="4" y2="36" x1="0" x2="0" stroke-linecap="round" stroke="#E6E6E6" stroke-width="5"></line><path d="M0,4L-13.333333333333334,20L0,36L13.333333333333334,20Z" stroke="black" stroke-width="2" opacity="0"></path></g><g class="col" transform="translate(200,0)"><rect class="cell" rx="4" ry="4" opacity="0.25" x="4" y="4" width="32" height="32" fill="#E6E6E6"></rect><line class="hline" x1="4" x2="36" y1="0" y2="0" stroke-linecap="round" stroke="#E6E6E6" stroke-width="5"></line><path d="M4,0L20,-13.333333333333334L36,0L20,13.333333333333334Z" stroke="black" stroke-width="2" opacity="0"></path><line class="vline" y1="4" y2="36" x1="0" x2="0" stroke-linecap="round" stroke="#E6E6E6" stroke-width="5"></line><path d="M0,4L-13.333333333333334,20L0,36L13.333333333333334,20Z" stroke="black" stroke-width="2" opacity="0"></path></g><g class="col" transform="translate(240,0)"><rect class="cell" rx="4" ry="4" opacity="0.25" x="4" y="4" width="32" height="32" fill="white"></rect><line class="hline" x1="4" x2="36" y1="0" y2="0" stroke-linecap="round" stroke-width="0"></line><path d="M4,0L20,-13.333333333333334L36,0L20,13.333333333333334Z" stroke="black" stroke-width="2" opacity="0"></path><line class="vline" y1="4" y2="36" x1="0" x2="0" stroke-linecap="round" stroke="#E6E6E6" stroke-width="5"></line><path d="M0,4L-13.333333333333334,20L0,36L13.333333333333334,20Z" stroke="black" stroke-width="2" opacity="0"></path></g></g><g class="row" transform="translate(0,240)"><g class="col" transform="translate(0,0)"><rect class="cell" rx="4" ry="4" opacity="0.25" x="4" y="4" width="32" height="32" fill="white"></rect><line class="hline" x1="4" x2="36" y1="0" y2="0" stroke-linecap="round" stroke="#E6E6E6" stroke-width="5"></line><path d="M4,0L20,-13.333333333333334L36,0L20,13.333333333333334Z" stroke="black" stroke-width="2" opacity="0"></path><line class="vline" y1="4" y2="36" x1="0" x2="0" stroke-linecap="round" stroke-width="0"></line><path d="M0,4L-13.333333333333334,20L0,36L13.333333333333334,20Z" stroke="black" stroke-width="2" opacity="0"></path></g><g class="col" transform="translate(40,0)"><rect class="cell" rx="4" ry="4" opacity="0.25" x="4" y="4" width="32" height="32" fill="white"></rect><line class="hline" x1="4" x2="36" y1="0" y2="0" stroke-linecap="round" stroke="#E6E6E6" stroke-width="5"></line><path d="M4,0L20,-13.333333333333334L36,0L20,13.333333333333334Z" stroke="black" stroke-width="2" opacity="0"></path><line class="vline" y1="4" y2="36" x1="0" x2="0" stroke-linecap="round" stroke-width="0"></line><path d="M0,4L-13.333333333333334,20L0,36L13.333333333333334,20Z" stroke="black" stroke-width="2" opacity="0"></path></g><g class="col" transform="translate(80,0)"><rect class="cell" rx="4" ry="4" opacity="0.25" x="4" y="4" width="32" height="32" fill="white"></rect><line class="hline" x1="4" x2="36" y1="0" y2="0" stroke-linecap="round" stroke="#E6E6E6" stroke-width="5"></line><path d="M4,0L20,-13.333333333333334L36,0L20,13.333333333333334Z" stroke="black" stroke-width="2" opacity="0"></path><line class="vline" y1="4" y2="36" x1="0" x2="0" stroke-linecap="round" stroke-width="0"></line><path d="M0,4L-13.333333333333334,20L0,36L13.333333333333334,20Z" stroke="black" stroke-width="2" opacity="0"></path></g><g class="col" transform="translate(120,0)"><rect class="cell" rx="4" ry="4" opacity="0.25" x="4" y="4" width="32" height="32" fill="white"></rect><line class="hline" x1="4" x2="36" y1="0" y2="0" stroke-linecap="round" stroke="#FC6666" stroke-width="5"></line><path d="M4,0L20,-13.333333333333334L36,0L20,13.333333333333334Z" stroke="black" stroke-width="2" opacity="0"></path><line class="vline" y1="4" y2="36" x1="0" x2="0" stroke-linecap="round" stroke-width="0"></line><path d="M0,4L-13.333333333333334,20L0,36L13.333333333333334,20Z" stroke="black" stroke-width="2" opacity="0"></path></g><g class="col" transform="translate(160,0)"><rect class="cell" rx="4" ry="4" opacity="0.25" x="4" y="4" width="32" height="32" fill="white"></rect><line class="hline" x1="4" x2="36" y1="0" y2="0" stroke-linecap="round" stroke="#0F80FF" stroke-width="5"></line><path d="M4,0L20,-13.333333333333334L36,0L20,13.333333333333334Z" stroke="black" stroke-width="2" opacity="0"></path><line class="vline" y1="4" y2="36" x1="0" x2="0" stroke-linecap="round" stroke-width="0"></line><path d="M0,4L-13.333333333333334,20L0,36L13.333333333333334,20Z" stroke="black" stroke-width="2" opacity="0"></path></g><g class="col" transform="translate(200,0)"><rect class="cell" rx="4" ry="4" opacity="0.25" x="4" y="4" width="32" height="32" fill="white"></rect><line class="hline" x1="4" x2="36" y1="0" y2="0" stroke-linecap="round" stroke="#E6E6E6" stroke-width="5"></line><path d="M4,0L20,-13.333333333333334L36,0L20,13.333333333333334Z" stroke="black" stroke-width="2" opacity="0"></path><line class="vline" y1="4" y2="36" x1="0" x2="0" stroke-linecap="round" stroke-width="0"></line><path d="M0,4L-13.333333333333334,20L0,36L13.333333333333334,20Z" stroke="black" stroke-width="2" opacity="0"></path></g><g class="col" transform="translate(240,0)"><rect class="cell" rx="4" ry="4" opacity="0.25" x="4" y="4" width="32" height="32" fill="white"></rect><line class="hline" x1="4" x2="36" y1="0" y2="0" stroke-linecap="round" stroke-width="0"></line><path d="M4,0L20,-13.333333333333334L36,0L20,13.333333333333334Z" stroke="black" stroke-width="2" opacity="0"></path><line class="vline" y1="4" y2="36" x1="0" x2="0" stroke-linecap="round" stroke-width="0"></line><path d="M0,4L-13.333333333333334,20L0,36L13.333333333333334,20Z" stroke="black" stroke-width="2" opacity="0"></path></g></g></g></g></svg>